<svg xmlns="http://www.w3.org/2000/svg" viewBox="0 0 1280 720" width="1280" height="720">
  <g id="bg-layer">
    <rect width="1280" height="720" fill="#F5F0E8" />
  </g>

  <g id="page-header">
    
  <g transform="translate(490.0, 60.0) scale(1.6666666666666667)" fill="#E8A87C">
    <path d="M17 3.34a10 10 0 1 1 -15 8.66l.005 -.324a10 10 0 0 1 14.995 -8.336zm-1.445 3.828a1 1 0 0 0 -1.387 .277l-2.168 3.251l-2.168 -3.25a1 1 0 0 0 -1.286 -.337l-.1 .059a1 1 0 0 0 -.278 1.387l2.296 3.445h-1.464a1 1 0 0 0 -.993 .883l-.007 .117a1 1 0 0 0 1 1h2v3a1 1 0 0 0 .883 .993l.117 .007l.117 -.007a1 1 0 0 0 .883 -.993v-3h2a1 1 0 0 0 .993 -.883l.007 -.117a1 1 0 0 0 -1 -1h-1.465l2.297 -3.445a1 1 0 0 0 -.184 -1.317l-.093 -.07z" />
  </g>
    <text x="640" y="140" font-family="KaiTi, Georgia, serif" font-size="36" font-weight="bold" fill="#8B6F47" text-anchor="middle">IPO 箭在弦上</text>
    <text x="640" y="175" font-family="'Microsoft YaHei', Arial, sans-serif" font-size="16" fill="#8B7D6B" text-anchor="middle">月之暗面即将成为中国首批AI上市独角兽之一</text>
  </g>

  <g id="ipo-card">
    <path fill="#FAF7F2" stroke="#E8A87C" stroke-width="2" d="M356,220 H924 A16,16 0 0 1 940,236 V384 A16,16 0 0 1 924,400 H356 A16,16 0 0 1 340,384 V236 A16,16 0 0 1 356,220 Z" />
    <text x="640" y="265" font-family="'Microsoft YaHei', Arial, sans-serif" font-size="16" font-weight="bold" fill="#E8A87C" text-anchor="middle">香港 IPO · 预计年底前登陆港股</text>
    <text x="640" y="330" font-family="KaiTi, Georgia, serif" font-size="52" font-weight="bold" fill="#8B6F47" text-anchor="middle">~30亿美元</text>
    <text x="640" y="370" font-family="'Microsoft YaHei', Arial, sans-serif" font-size="16" fill="#8B7D6B" text-anchor="middle">目标募资金额 · 高盛、中金公司承销</text>
  </g>

  <g id="kpi-1">
    <path fill="#FAF7F2" stroke="#EDE5D5" stroke-width="1" d="M112,450 H348 A12,12 0 0 1 360,462 V578 A12,12 0 0 1 348,590 H112 A12,12 0 0 1 100,578 V462 A12,12 0 0 1 112,450 Z" />
    
  <g transform="translate(120.0, 470.0) scale(1.1666666666666667)" fill="#6B8E5A">
    <path d="M11.852 2.011l.058 -.007l.09 -.004l.075 .003l.126 .017l.111 .03l.111 .044l.098 .052l.104 .074l.082 .073l3 3a1 1 0 1 1 -1.414 1.414l-1.293 -1.292v10.756a3.001 3.001 0 1 1 -2 0v-10.756l-1.293 1.292a1 1 0 0 1 -1.32 .083l-.094 -.083a1 1 0 0 1 0 -1.414l3 -3q .053 -.054 .112 -.097l.11 -.071l.114 -.054l.105 -.035z" />
  </g>
    <text x="160" y="492" font-family="'Microsoft YaHei', Arial, sans-serif" font-size="14" fill="#8B7D6B">年化经常性收入</text>
    <text x="230" y="545" font-family="KaiTi, Georgia, serif" font-size="40" font-weight="bold" fill="#6B8E5A" text-anchor="middle">&gt;3亿</text>
    <text x="230" y="575" font-family="'Microsoft YaHei', Arial, sans-serif" font-size="13" fill="#A89B8A" text-anchor="middle">ARR · 美元</text>
  </g>

  <g id="kpi-2">
    <path fill="#FAF7F2" stroke="#EDE5D5" stroke-width="1" d="M412,450 H648 A12,12 0 0 1 660,462 V578 A12,12 0 0 1 648,590 H412 A12,12 0 0 1 400,578 V462 A12,12 0 0 1 412,450 Z" />
    
  <g transform="translate(420.0, 470.0) scale(1.1666666666666667)" fill="#E8A87C">
    <path d="M10 2c0 -.88 1.056 -1.331 1.692 -.722c1.958 1.876 3.096 5.995 1.75 9.12l-.08 .174l.012 .003c.625 .133 1.203 -.43 2.303 -2.173l.14 -.224a1 1 0 0 1 1.582 -.153c1.334 1.435 2.601 4.377 2.601 6.27c0 4.265 -3.591 7.705 -8 7.705s-8 -3.44 -8 -7.706c0 -2.252 1.022 -4.716 2.632 -6.301l.605 -.589c.241 -.236 .434 -.43 .618 -.624c1.43 -1.512 2.145 -2.924 2.145 -4.78" />
  </g>
    <text x="460" y="492" font-family="'Microsoft YaHei', Arial, sans-serif" font-size="14" fill="#8B7D6B">Kimi AI 用户</text>
    <text x="530" y="545" font-family="KaiTi, Georgia, serif" font-size="40" font-weight="bold" fill="#E8A87C" text-anchor="middle">4000万</text>
    <text x="530" y="575" font-family="'Microsoft YaHei', Arial, sans-serif" font-size="13" fill="#A89B8A" text-anchor="middle">月活 · 中国第一</text>
  </g>

  <g id="kpi-3">
    <path fill="#FAF7F2" stroke="#EDE5D5" stroke-width="1" d="M712,450 H948 A12,12 0 0 1 960,462 V578 A12,12 0 0 1 948,590 H712 A12,12 0 0 1 700,578 V462 A12,12 0 0 1 712,450 Z" />
    
  <g transform="translate(720.0, 470.0) scale(1.1666666666666667)" fill="#8B6F47">
    <path d="M19 5a3 3 0 0 1 3 3v8a3 3 0 0 1 -3 3h-14a3 3 0 0 1 -3 -3v-8a3 3 0 0 1 3 -3zm-7 4a3 3 0 0 0 -2.996 2.85l-.004 .15a3 3 0 1 0 3 -3m6.01 2h-.01a1 1 0 0 0 0 2h.01a1 1 0 0 0 0 -2m-12 0h-.01a1 1 0 1 0 .01 2a1 1 0 0 0 0 -2" />
  </g>
    <text x="760" y="492" font-family="'Microsoft YaHei', Arial, sans-serif" font-size="14" fill="#8B7D6B">收入增速</text>
    <text x="830" y="545" font-family="KaiTi, Georgia, serif" font-size="40" font-weight="bold" fill="#8B6F47" text-anchor="middle">10倍</text>
    <text x="830" y="575" font-family="'Microsoft YaHei', Arial, sans-serif" font-size="13" fill="#A89B8A" text-anchor="middle">年度同比增长</text>
  </g>

  <g id="kpi-4">
    <path fill="#FAF7F2" stroke="#EDE5D5" stroke-width="1" d="M1012,450 H1208 A12,12 0 0 1 1220,462 V578 A12,12 0 0 1 1208,590 H1012 A12,12 0 0 1 1000,578 V462 A12,12 0 0 1 1012,450 Z" />
    
  <g transform="translate(1020.0, 470.0) scale(1.1666666666666667)" fill="#8B6F47">
    <path d="M11.884 2.007l.114 -.007l.118 .007l.059 .008l.061 .013l.111 .034a.993 .993 0 0 1 .217 .112l.104 .082l.255 .218a11 11 0 0 0 7.189 2.537l.342 -.01a1 1 0 0 1 1.005 .717a13 13 0 0 1 -9.208 16.25a1 1 0 0 1 -.502 0a13 13 0 0 1 -9.209 -16.25a1 1 0 0 1 1.005 -.717a11 11 0 0 0 7.531 -2.527l.263 -.225l.096 -.075a.993 .993 0 0 1 .217 -.112l.112 -.034a.97 .97 0 0 1 .119 -.021z" />
  </g>
    <text x="1060" y="492" font-family="'Microsoft YaHei', Arial, sans-serif" font-size="14" fill="#8B7D6B">护城河</text>
    <text x="1110" y="540" font-family="KaiTi, Georgia, serif" font-size="20" font-weight="bold" fill="#5D4E37" text-anchor="middle">自研Kimi K3</text>
    <text x="1110" y="570" font-family="'Microsoft YaHei', Arial, sans-serif" font-size="13" fill="#A89B8A" text-anchor="middle">不依赖第三方模型</text>
  </g>

  <g id="context-note">
    <text x="640" y="650" font-family="KaiTi, Georgia, serif" font-size="16" fill="#8B6F47" text-anchor="middle" font-style="italic">若成功上市，将成为中国AI浪潮的标杆性事件。</text>
  </g>

  <g id="page-number">
    <text x="1220" y="695" font-family="'Microsoft YaHei', Arial, sans-serif" font-size="12" fill="#A89B8A" text-anchor="end">10 / 14</text>
  </g>
</svg>