<svg xmlns="http://www.w3.org/2000/svg" viewBox="0 0 1280 720" width="1280" height="720">
  <defs>
    <linearGradient id="secGrad11" x1="0%" y1="0%" x2="100%" y2="100%">
      <stop offset="0%" stop-color="#8B6F47" />
      <stop offset="100%" stop-color="#6B5535" />
    </linearGradient>
  </defs>
  <rect width="1280" height="720" fill="url(#secGrad11)" />
  <circle cx="1100" cy="600" r="200" fill="#FAF7F2" fill-opacity="0.05" />
  <circle cx="180" cy="140" r="120" fill="#FAF7F2" fill-opacity="0.04" />

  <g id="content">
    <text x="640" y="260" font-family="Georgia, Microsoft YaHei, serif" font-size="120" fill="#FAF7F2" fill-opacity="0.15" text-anchor="middle" font-weight="bold">11</text>
    <text x="640" y="340" font-family="Microsoft YaHei, PingFang SC, Georgia, serif" font-size="48" fill="#FAF7F2" text-anchor="middle" font-weight="bold">Harness Engineering</text>
    <path fill="#E8A87C" d="M522,365 H758 A2,2 0 0 1 760,367 V367 A2,2 0 0 1 758,369 H522 A2,2 0 0 1 520,367 V367 A2,2 0 0 1 522,365 Z" />
    <text x="640" y="420" font-family="Microsoft YaHei, PingFang SC, Arial, sans-serif" font-size="20" fill="#FAF7F2" fill-opacity="0.8" text-anchor="middle">驾驭 AI 的系统工程</text>
    
  <g transform="translate(610.0, 450.0) scale(1.5)" fill="#E8A87C">
    <path d="M14.647 4.081a.724 .724 0 0 0 1.08 .448c2.439 -1.485 5.23 1.305 3.745 3.744a.724 .724 0 0 0 .447 1.08c2.775 .673 2.775 4.62 0 5.294a.724 .724 0 0 0 -.448 1.08c1.485 2.439 -1.305 5.23 -3.744 3.745a.724 .724 0 0 0 -1.08 .447c-.673 2.775 -4.62 2.775 -5.294 0a.724 .724 0 0 0 -1.08 -.448c-2.439 1.485 -5.23 -1.305 -3.745 -3.744a.724 .724 0 0 0 -.447 -1.08c-2.775 -.673 -2.775 -4.62 0 -5.294a.724 .724 0 0 0 .448 -1.08c-1.485 -2.439 1.305 -5.23 3.744 -3.745a.722 .722 0 0 0 1.08 -.447c.673 -2.775 4.62 -2.775 5.294 0zm-2.647 4.919a3 3 0 1 0 0 6a3 3 0 0 0 0 -6" />
  </g>
  </g>

  <g id="footer">
    <text x="40" y="695" font-family="Microsoft YaHei, PingFang SC, Arial, sans-serif" font-size="12" fill="#FAF7F2" fill-opacity="0.5">AI大家学 · 大模型技术篇</text>
    <text x="1240" y="695" font-family="Microsoft YaHei, PingFang SC, Arial, sans-serif" font-size="12" fill="#FAF7F2" fill-opacity="0.5" text-anchor="end">36</text>
  </g>
</svg>