<svg xmlns="http://www.w3.org/2000/svg" viewBox="0 0 1280 720" width="1280" height="720">
  <defs>
    <linearGradient id="secGrad12" x1="0%" y1="0%" x2="100%" y2="100%">
      <stop offset="0%" stop-color="#8B6F47" />
      <stop offset="100%" stop-color="#6B5535" />
    </linearGradient>
  </defs>
  <rect width="1280" height="720" fill="url(#secGrad12)" />
  <circle cx="1100" cy="600" r="200" fill="#FAF7F2" fill-opacity="0.05" />
  <circle cx="180" cy="140" r="120" fill="#FAF7F2" fill-opacity="0.04" />

  <g id="content">
    <text x="640" y="260" font-family="Georgia, Microsoft YaHei, serif" font-size="120" fill="#FAF7F2" fill-opacity="0.15" text-anchor="middle" font-weight="bold">12</text>
    <text x="640" y="340" font-family="Microsoft YaHei, PingFang SC, Georgia, serif" font-size="48" fill="#FAF7F2" text-anchor="middle" font-weight="bold">2026 前沿</text>
    <path fill="#E8A87C" d="M522,365 H758 A2,2 0 0 1 760,367 V367 A2,2 0 0 1 758,369 H522 A2,2 0 0 1 520,367 V367 A2,2 0 0 1 522,365 Z" />
    <text x="640" y="420" font-family="Microsoft YaHei, PingFang SC, Arial, sans-serif" font-size="20" fill="#FAF7F2" fill-opacity="0.8" text-anchor="middle">OpenClaw · Hermes · Vibe Coding</text>
    
  <g transform="translate(610.0, 450.0) scale(1.5)" fill="#E8A87C">
    <path d="M10 2c0 -.88 1.056 -1.331 1.692 -.722c1.958 1.876 3.096 5.995 1.75 9.12l-.08 .174l.012 .003c.625 .133 1.203 -.43 2.303 -2.173l.14 -.224a1 1 0 0 1 1.582 -.153c1.334 1.435 2.601 4.377 2.601 6.27c0 4.265 -3.591 7.705 -8 7.705s-8 -3.44 -8 -7.706c0 -2.252 1.022 -4.716 2.632 -6.301l.605 -.589c.241 -.236 .434 -.43 .618 -.624c1.43 -1.512 2.145 -2.924 2.145 -4.78" />
  </g>
  </g>

  <g id="footer">
    <text x="40" y="695" font-family="Microsoft YaHei, PingFang SC, Arial, sans-serif" font-size="12" fill="#FAF7F2" fill-opacity="0.5">AI大家学 · 大模型技术篇</text>
    <text x="1240" y="695" font-family="Microsoft YaHei, PingFang SC, Arial, sans-serif" font-size="12" fill="#FAF7F2" fill-opacity="0.5" text-anchor="end">39</text>
  </g>
</svg>